Coordinates
version=1
nRows=36
nColumns=21
inDegrees=no
endheader
time	ra_wr_s_p	ra_wr_e_f	ra_cmc1_ad_ab	ra_cmc1_f_e	ra_mcp1_f_e	ra_ip1_f_e	ra_mcp2_e_f	ra_pip2_e_f	ra_dip2_e_f	ra_mcp3_e_f	ra_pip3_e_f	ra_dip3_e_f	ra_mcp4_e_f	ra_pip4_e_f	ra_dip4_e_f	ra_mcp5_e_f	ra_pip5_e_f	ra_dip5_e_f	ra_el_e_f	ra_wr_ad_ab
0.375000	1.117040	-0.879604	0.073747	0.073747	-0.066370	-0.132740	0.132740	0.176987	0.132740	0.132740	0.176987	0.132740	0.132740	0.176987	0.132740	0.132740	0.176987	0.132740	1.570796	0.001000
0.376000	1.117040	-0.881272	0.073122	0.073122	-0.065807	-0.131614	0.131614	0.175485	0.131614	0.131614	0.175485	0.131614	0.131614	0.175485	0.131614	0.131614	0.175485	0.131614	1.570796	0.001000
0.377000	1.117040	-0.882916	0.072505	0.072505	-0.065252	-0.130504	0.130504	0.174005	0.130504	0.130504	0.174005	0.130504	0.130504	0.174005	0.130504	0.130504	0.174005	0.130504	1.570796	0.001000
0.378000	1.117040	-0.884536	0.071898	0.071898	-0.064705	-0.129411	0.129411	0.172548	0.129411	0.129411	0.172548	0.129411	0.129411	0.172548	0.129411	0.129411	0.172548	0.129411	1.570796	0.001000
0.379000	1.117040	-0.886131	0.071299	0.071299	-0.064167	-0.128334	0.128334	0.171112	0.128334	0.128334	0.171112	0.128334	0.128334	0.171112	0.128334	0.128334	0.171112	0.128334	1.570796	0.001000
0.380000	1.117040	-0.887703	0.070710	0.070710	-0.063636	-0.127273	0.127273	0.169697	0.127273	0.127273	0.169697	0.127273	0.127273	0.169697	0.127273	0.127273	0.169697	0.127273	1.570796	0.001000
0.381000	1.117040	-0.889251	0.070129	0.070129	-0.063114	-0.126228	0.126228	0.168304	0.126228	0.126228	0.168304	0.126228	0.126228	0.168304	0.126228	0.126228	0.168304	0.126228	1.570796	0.001000
0.382000	1.117040	-0.890776	0.069558	0.069558	-0.062599	-0.125199	0.125199	0.166932	0.125199	0.125199	0.166932	0.125199	0.125199	0.166932	0.125199	0.125199	0.166932	0.125199	1.570796	0.001000
0.383000	1.117040	-0.892277	0.068995	0.068995	-0.062093	-0.124185	0.124185	0.165581	0.124185	0.124185	0.165581	0.124185	0.124185	0.165581	0.124185	0.124185	0.165581	0.124185	1.570796	0.001000
0.384000	1.117040	-0.893756	0.068440	0.068440	-0.061594	-0.123187	0.123187	0.164250	0.123187	0.123187	0.164250	0.123187	0.123187	0.164250	0.123187	0.123187	0.164250	0.123187	1.570796	0.001000
0.385000	1.117040	-0.895211	0.067894	0.067894	-0.061102	-0.122205	0.122205	0.162940	0.122205	0.122205	0.162940	0.122205	0.122205	0.162940	0.122205	0.122205	0.162940	0.122205	1.570796	0.001000
0.386000	1.117040	-0.896645	0.067357	0.067357	-0.060619	-0.121237	0.121237	0.161650	0.121237	0.121237	0.161650	0.121237	0.121237	0.161650	0.121237	0.121237	0.161650	0.121237	1.570796	0.001000
0.387000	1.117040	-0.898056	0.066827	0.066827	-0.060142	-0.120285	0.120285	0.160380	0.120285	0.120285	0.160380	0.120285	0.120285	0.160380	0.120285	0.120285	0.160380	0.120285	1.570796	0.001000
0.388000	1.117040	-0.899445	0.066307	0.066307	-0.059674	-0.119347	0.119347	0.159130	0.119347	0.119347	0.159130	0.119347	0.119347	0.159130	0.119347	0.119347	0.159130	0.119347	1.570796	0.001000
0.389000	1.117040	-0.900812	0.065794	0.065794	-0.059212	-0.118424	0.118424	0.157899	0.118424	0.118424	0.157899	0.118424	0.118424	0.157899	0.118424	0.118424	0.157899	0.118424	1.570796	0.001000
0.390000	1.117040	-0.902158	0.065289	0.065289	-0.058758	-0.117516	0.117516	0.156688	0.117516	0.117516	0.156688	0.117516	0.117516	0.156688	0.117516	0.117516	0.156688	0.117516	1.570796	0.001000
0.391000	1.117040	-0.903482	0.064793	0.064793	-0.058311	-0.116622	0.116622	0.155496	0.116622	0.116622	0.155496	0.116622	0.116622	0.155496	0.116622	0.116622	0.155496	0.116622	1.570796	0.001000
0.392000	1.117040	-0.904785	0.064304	0.064304	-0.057871	-0.115743	0.115743	0.154323	0.115743	0.115743	0.154323	0.115743	0.115743	0.154323	0.115743	0.115743	0.154323	0.115743	1.570796	0.001000
0.393000	1.117040	-0.906067	0.063823	0.063823	-0.057439	-0.114877	0.114877	0.153169	0.114877	0.114877	0.153169	0.114877	0.114877	0.153169	0.114877	0.114877	0.153169	0.114877	1.570796	0.001000
0.394000	1.117040	-0.907329	0.063350	0.063350	-0.057013	-0.114026	0.114026	0.152034	0.114026	0.114026	0.152034	0.114026	0.114026	0.152034	0.114026	0.114026	0.152034	0.114026	1.570796	0.001000
0.395000	1.117040	-0.908570	0.062885	0.062885	-0.056594	-0.113188	0.113188	0.150917	0.113188	0.113188	0.150917	0.113188	0.113188	0.150917	0.113188	0.113188	0.150917	0.113188	1.570796	0.001000
0.396000	1.117040	-0.909790	0.062427	0.062427	-0.056182	-0.112364	0.112364	0.149819	0.112364	0.112364	0.149819	0.112364	0.112364	0.149819	0.112364	0.112364	0.149819	0.112364	1.570796	0.001000
0.397000	1.117040	-0.910991	0.061977	0.061977	-0.055777	-0.111553	0.111553	0.148738	0.111553	0.111553	0.148738	0.111553	0.111553	0.148738	0.111553	0.111553	0.148738	0.111553	1.570796	0.001000
0.398000	1.117040	-0.912172	0.061534	0.061534	-0.055378	-0.110756	0.110756	0.147675	0.110756	0.110756	0.147675	0.110756	0.110756	0.147675	0.110756	0.110756	0.147675	0.110756	1.570796	0.001000
0.399000	1.117040	-0.913333	0.061098	0.061098	-0.054986	-0.109973	0.109973	0.146630	0.109973	0.109973	0.146630	0.109973	0.109973	0.146630	0.109973	0.109973	0.146630	0.109973	1.570796	0.001000
0.400000	1.117040	-0.914475	0.060670	0.060670	-0.054601	-0.109202	0.109202	0.145603	0.109202	0.109202	0.145603	0.109202	0.109202	0.145603	0.109202	0.109202	0.145603	0.109202	1.570796	0.001000
0.401000	1.117040	-0.915598	0.060249	0.060249	-0.054222	-0.108444	0.108444	0.144592	0.108444	0.108444	0.144592	0.108444	0.108444	0.144592	0.108444	0.108444	0.144592	0.108444	1.570796	0.001000
0.402000	1.117040	-0.916701	0.059835	0.059835	-0.053850	-0.107699	0.107699	0.143599	0.107699	0.107699	0.143599	0.107699	0.107699	0.143599	0.107699	0.107699	0.143599	0.107699	1.570796	0.001000
0.403000	1.117040	-0.917786	0.059428	0.059428	-0.053484	-0.106967	0.106967	0.142623	0.106967	0.106967	0.142623	0.106967	0.106967	0.142623	0.106967	0.106967	0.142623	0.106967	1.570796	0.001000
0.404000	1.117040	-0.918852	0.059029	0.059029	-0.053124	-0.106247	0.106247	0.141663	0.106247	0.106247	0.141663	0.106247	0.106247	0.141663	0.106247	0.106247	0.141663	0.106247	1.570796	0.001000
0.405000	1.117040	-0.919900	0.058636	0.058636	-0.052770	-0.105540	0.105540	0.140720	0.105540	0.105540	0.140720	0.105540	0.105540	0.140720	0.105540	0.105540	0.140720	0.105540	1.570796	0.001000
0.406000	1.117040	-0.920929	0.058250	0.058250	-0.052423	-0.104845	0.104845	0.139793	0.104845	0.104845	0.139793	0.104845	0.104845	0.139793	0.104845	0.104845	0.139793	0.104845	1.570796	0.001000
0.407000	1.117040	-0.921941	0.057870	0.057870	-0.052081	-0.104162	0.104162	0.138883	0.104162	0.104162	0.138883	0.104162	0.104162	0.138883	0.104162	0.104162	0.138883	0.104162	1.570796	0.001000
0.408000	1.117040	-0.922935	0.057497	0.057497	-0.051746	-0.103491	0.103491	0.137989	0.103491	0.103491	0.137989	0.103491	0.103491	0.137989	0.103491	0.103491	0.137989	0.103491	1.570796	0.001000
0.409000	1.117040	-0.923911	0.057131	0.057131	-0.051416	-0.102832	0.102832	0.137110	0.102832	0.102832	0.137110	0.102832	0.102832	0.137110	0.102832	0.102832	0.137110	0.102832	1.570796	0.001000
0.410000	1.117040	-0.924870	0.056772	0.056772	-0.051093	-0.102185	0.102185	0.136247	0.102185	0.102185	0.136247	0.102185	0.102185	0.136247	0.102185	0.102185	0.136247	0.102185	1.570796	0.001000
